<?xml version="1.0" encoding="UTF-8" standalone="no"?>
<!DOCTYPE svg PUBLIC "-//W3C//DTD SVG 1.1//EN" "http://www.w3.org/Graphics/SVG/1.1/DTD/svg11.dtd">
<svg width="100%" height="100%" viewBox="0 0 1080 1250" version="1.1" xmlns="http://www.w3.org/2000/svg" xmlns:xlink="http://www.w3.org/1999/xlink" xml:space="preserve" xmlns:serif="http://www.serif.com/" style="fill-rule:evenodd;clip-rule:evenodd;">
    <path d="M540,0.68L0,312.93L0,937.37L540,1249.32L1080,936.84L1080,313.98L540,0.68Z" style="fill:#1e262f;fill-rule:nonzero;"/>
    <path d="M540.56,44.7L39.82,335.79L37.68,914.75L540.56,1205.3L1042.32,915.28L1042.32,336.32L540.56,44.7Z" style="fill:#2e96c2;fill-rule:nonzero;"/>
    <path d="M170.785,926.92C165.358,926.92 160.042,926.187 154.835,924.72C149.702,923.327 145.485,921.273 142.185,918.56L148.345,908.22C150.912,910.347 154.138,912.033 158.025,913.28C161.985,914.6 165.982,915.26 170.015,915.26C176.468,915.26 181.198,913.757 184.205,910.75C187.212,907.817 188.715,903.38 188.715,897.44L188.715,886.99L189.815,873.68L189.375,860.37L189.375,846.07L202.465,846.07L202.465,895.9C202.465,906.533 199.752,914.343 194.325,919.33C188.898,924.39 181.052,926.92 170.785,926.92ZM169.025,902.17C163.452,902.17 158.392,900.997 153.845,898.65C149.372,896.23 145.815,892.893 143.175,888.64C140.608,884.387 139.325,879.4 139.325,873.68C139.325,868.033 140.608,863.083 143.175,858.83C145.815,854.577 149.372,851.277 153.845,848.93C158.392,846.583 163.452,845.41 169.025,845.41C174.012,845.41 178.485,846.4 182.445,848.38C186.405,850.36 189.558,853.44 191.905,857.62C194.325,861.8 195.535,867.153 195.535,873.68C195.535,880.207 194.325,885.597 191.905,889.85C189.558,894.03 186.405,897.147 182.445,899.2C178.485,901.18 174.012,902.17 169.025,902.17ZM171.115,890.51C174.562,890.51 177.642,889.813 180.355,888.42C183.068,886.953 185.158,884.973 186.625,882.48C188.165,879.913 188.935,876.98 188.935,873.68C188.935,870.38 188.165,867.483 186.625,864.99C185.158,862.423 183.068,860.48 180.355,859.16C177.642,857.767 174.562,857.07 171.115,857.07C167.668,857.07 164.552,857.767 161.765,859.16C159.052,860.48 156.925,862.423 155.385,864.99C153.918,867.483 153.185,870.38 153.185,873.68C153.185,876.98 153.918,879.913 155.385,882.48C156.925,884.973 159.052,886.953 161.765,888.42C164.552,889.813 167.668,890.51 171.115,890.51Z" style="fill:#1e262f;fill-rule:nonzero;"/>
    <path d="M245.475,926.92C240.048,926.92 234.732,926.187 229.525,924.72C224.392,923.327 220.175,921.273 216.875,918.56L223.035,908.22C225.602,910.347 228.828,912.033 232.715,913.28C236.675,914.6 240.672,915.26 244.705,915.26C251.158,915.26 255.888,913.757 258.895,910.75C261.902,907.817 263.405,903.38 263.405,897.44L263.405,886.99L264.505,873.68L264.065,860.37L264.065,846.07L277.155,846.07L277.155,895.9C277.155,906.533 274.442,914.343 269.015,919.33C263.588,924.39 255.742,926.92 245.475,926.92ZM243.715,902.17C238.142,902.17 233.082,900.997 228.535,898.65C224.062,896.23 220.505,892.893 217.865,888.64C215.298,884.387 214.015,879.4 214.015,873.68C214.015,868.033 215.298,863.083 217.865,858.83C220.505,854.577 224.062,851.277 228.535,848.93C233.082,846.583 238.142,845.41 243.715,845.41C248.702,845.41 253.175,846.4 257.135,848.38C261.095,850.36 264.248,853.44 266.595,857.62C269.015,861.8 270.225,867.153 270.225,873.68C270.225,880.207 269.015,885.597 266.595,889.85C264.248,894.03 261.095,897.147 257.135,899.2C253.175,901.18 248.702,902.17 243.715,902.17ZM245.805,890.51C249.252,890.51 252.332,889.813 255.045,888.42C257.758,886.953 259.848,884.973 261.315,882.48C262.855,879.913 263.625,876.98 263.625,873.68C263.625,870.38 262.855,867.483 261.315,864.99C259.848,862.423 257.758,860.48 255.045,859.16C252.332,857.767 249.252,857.07 245.805,857.07C242.358,857.07 239.242,857.767 236.455,859.16C233.742,860.48 231.615,862.423 230.075,864.99C228.608,867.483 227.875,870.38 227.875,873.68C227.875,876.98 228.608,879.913 230.075,882.48C231.615,884.973 233.742,886.953 236.455,888.42C239.242,889.813 242.358,890.51 245.805,890.51Z" style="fill:#1e262f;fill-rule:nonzero;"/>
    <path d="M311.695,905.58C306.782,905.58 302.052,904.957 297.505,903.71C293.032,902.39 289.475,900.813 286.835,898.98L292.115,888.53C294.755,890.217 297.908,891.61 301.575,892.71C305.242,893.81 308.908,894.36 312.575,894.36C316.902,894.36 320.018,893.773 321.925,892.6C323.905,891.427 324.895,889.85 324.895,887.87C324.895,886.257 324.235,885.047 322.915,884.24C321.595,883.36 319.872,882.7 317.745,882.26C315.618,881.82 313.235,881.417 310.595,881.05C308.028,880.683 305.425,880.207 302.785,879.62C300.218,878.96 297.872,878.043 295.745,876.87C293.618,875.623 291.895,873.973 290.575,871.92C289.255,869.867 288.595,867.153 288.595,863.78C288.595,860.04 289.658,856.813 291.785,854.1C293.912,851.313 296.882,849.187 300.695,847.72C304.582,846.18 309.165,845.41 314.445,845.41C318.405,845.41 322.402,845.85 326.435,846.73C330.468,847.61 333.805,848.857 336.445,850.47L331.165,860.92C328.378,859.233 325.555,858.097 322.695,857.51C319.908,856.85 317.122,856.52 314.335,856.52C310.155,856.52 307.038,857.143 304.985,858.39C303.005,859.637 302.015,861.213 302.015,863.12C302.015,864.88 302.675,866.2 303.995,867.08C305.315,867.96 307.038,868.657 309.165,869.17C311.292,869.683 313.638,870.123 316.205,870.49C318.845,870.783 321.448,871.26 324.015,871.92C326.582,872.58 328.928,873.497 331.055,874.67C333.255,875.77 335.015,877.347 336.335,879.4C337.655,881.453 338.315,884.13 338.315,887.43C338.315,891.097 337.215,894.287 335.015,897C332.888,899.713 329.845,901.84 325.885,903.38C321.925,904.847 317.195,905.58 311.695,905.58Z" style="fill:#1e262f;fill-rule:nonzero;"/>
    <path d="M373.405,905.58C368.418,905.58 364.018,904.663 360.205,902.83C356.392,900.923 353.422,898.063 351.295,894.25C349.168,890.363 348.105,885.487 348.105,879.62L348.105,846.07L361.855,846.07L361.855,877.75C361.855,883.03 363.028,886.99 365.375,889.63C367.795,892.197 371.205,893.48 375.605,893.48C378.832,893.48 381.618,892.82 383.965,891.5C386.385,890.18 388.255,888.2 389.575,885.56C390.968,882.92 391.665,879.657 391.665,875.77L391.665,846.07L405.415,846.07L405.415,904.81L392.325,904.81L392.325,888.97L394.635,893.81C392.655,897.623 389.758,900.557 385.945,902.61C382.132,904.59 377.952,905.58 373.405,905.58Z" style="fill:#1e262f;fill-rule:nonzero;"/>
    <path d="M421.805,904.81L421.805,846.07L434.895,846.07L434.895,862.24L433.355,857.51C435.115,853.55 437.865,850.543 441.605,848.49C445.418,846.437 450.148,845.41 455.795,845.41L455.795,858.5C455.208,858.353 454.658,858.28 454.145,858.28C453.632,858.207 453.118,858.17 452.605,858.17C447.398,858.17 443.255,859.71 440.175,862.79C437.095,865.797 435.555,870.307 435.555,876.32L435.555,904.81L421.805,904.81Z" style="fill:#1e262f;fill-rule:nonzero;"/>
    <path d="M483.625,904.81L458.435,846.07L472.735,846.07L494.405,897.88L487.365,897.88L509.805,846.07L523.005,846.07L497.815,904.81L483.625,904.81Z" style="fill:#1e262f;fill-rule:nonzero;"/>
    <path d="M555.895,905.58C549.368,905.58 543.648,904.297 538.735,901.73C533.895,899.09 530.118,895.497 527.405,890.95C524.765,886.403 523.445,881.233 523.445,875.44C523.445,869.573 524.728,864.403 527.295,859.93C529.935,855.383 533.528,851.827 538.075,849.26C542.695,846.693 547.938,845.41 553.805,845.41C559.525,845.41 564.622,846.657 569.095,849.15C573.568,851.643 577.088,855.163 579.655,859.71C582.222,864.257 583.505,869.61 583.505,875.77C583.505,876.357 583.468,877.017 583.395,877.75C583.395,878.483 583.358,879.18 583.285,879.84L534.335,879.84L534.335,870.71L576.025,870.71L570.635,873.57C570.708,870.197 570.012,867.227 568.545,864.66C567.078,862.093 565.062,860.077 562.495,858.61C560.002,857.143 557.105,856.41 553.805,856.41C550.432,856.41 547.462,857.143 544.895,858.61C542.402,860.077 540.422,862.13 538.955,864.77C537.562,867.337 536.865,870.38 536.865,873.9L536.865,876.1C536.865,879.62 537.672,882.737 539.285,885.45C540.898,888.163 543.172,890.253 546.105,891.72C549.038,893.187 552.412,893.92 556.225,893.92C559.525,893.92 562.495,893.407 565.135,892.38C567.775,891.353 570.122,889.74 572.175,887.54L579.545,896.01C576.905,899.09 573.568,901.473 569.535,903.16C565.575,904.773 561.028,905.58 555.895,905.58Z" style="fill:#1e262f;fill-rule:nonzero;"/>
    <path d="M595.055,904.81L595.055,846.07L608.805,846.07L608.805,904.81L595.055,904.81ZM601.985,836.39C599.418,836.39 597.292,835.583 595.605,833.97C593.992,832.357 593.185,830.413 593.185,828.14C593.185,825.793 593.992,823.85 595.605,822.31C597.292,820.697 599.418,819.89 601.985,819.89C604.552,819.89 606.642,820.66 608.255,822.2C609.942,823.667 610.785,825.537 610.785,827.81C610.785,830.23 609.978,832.283 608.365,833.97C606.752,835.583 604.625,836.39 601.985,836.39Z" style="fill:#1e262f;fill-rule:nonzero;"/>
    <rect x="625.195" y="823.19" width="13.75" height="81.62" style="fill:#1e262f;fill-rule:nonzero;"/>
    <rect x="655.335" y="823.19" width="13.75" height="81.62" style="fill:#1e262f;fill-rule:nonzero;"/>
    <path d="M721.665,904.81L721.665,892.93L720.895,890.4L720.895,869.61C720.895,865.577 719.685,862.46 717.265,860.26C714.845,857.987 711.178,856.85 706.265,856.85C702.965,856.85 699.702,857.363 696.475,858.39C693.322,859.417 690.645,860.847 688.445,862.68L683.055,852.67C686.208,850.25 689.948,848.453 694.275,847.28C698.675,846.033 703.222,845.41 707.915,845.41C716.422,845.41 722.985,847.463 727.605,851.57C732.298,855.603 734.645,861.873 734.645,870.38L734.645,904.81L721.665,904.81ZM703.185,905.58C698.785,905.58 694.935,904.847 691.635,903.38C688.335,901.84 685.768,899.75 683.935,897.11C682.175,894.397 681.295,891.353 681.295,887.98C681.295,884.68 682.065,881.71 683.605,879.07C685.218,876.43 687.822,874.34 691.415,872.8C695.008,871.26 699.775,870.49 705.715,870.49L722.765,870.49L722.765,879.62L706.705,879.62C702.012,879.62 698.858,880.39 697.245,881.93C695.632,883.397 694.825,885.23 694.825,887.43C694.825,889.923 695.815,891.903 697.795,893.37C699.775,894.837 702.525,895.57 706.045,895.57C709.418,895.57 712.425,894.8 715.065,893.26C717.778,891.72 719.722,889.447 720.895,886.44L723.205,894.69C721.885,898.137 719.502,900.813 716.055,902.72C712.682,904.627 708.392,905.58 703.185,905.58Z" style="fill:#1e262f;fill-rule:nonzero;"/>
    <path d="M750.595,904.81L750.595,846.07L763.685,846.07L763.685,861.91L761.375,857.07C763.428,853.33 766.398,850.47 770.285,848.49C774.245,846.437 778.792,845.41 783.925,845.41C788.618,845.41 792.798,846.327 796.465,848.16C800.205,849.993 803.138,852.817 805.265,856.63C807.392,860.37 808.455,865.21 808.455,871.15L808.455,904.81L794.705,904.81L794.705,872.91C794.705,867.703 793.458,863.817 790.965,861.25C788.545,858.683 785.135,857.4 780.735,857.4C777.508,857.4 774.648,858.06 772.155,859.38C769.662,860.7 767.718,862.68 766.325,865.32C765.005,867.887 764.345,871.15 764.345,875.11L764.345,904.81L750.595,904.81Z" style="fill:#1e262f;fill-rule:nonzero;"/>
    <path d="M851.245,905.58C845.085,905.58 839.585,904.297 834.745,901.73C829.978,899.09 826.238,895.497 823.525,890.95C820.812,886.403 819.455,881.233 819.455,875.44C819.455,869.573 820.812,864.403 823.525,859.93C826.238,855.383 829.978,851.827 834.745,849.26C839.585,846.693 845.085,845.41 851.245,845.41C856.965,845.41 861.988,846.583 866.315,848.93C870.715,851.203 874.052,854.577 876.325,859.05L865.765,865.21C864.005,862.423 861.842,860.37 859.275,859.05C856.782,857.73 854.068,857.07 851.135,857.07C847.762,857.07 844.718,857.803 842.005,859.27C839.292,860.737 837.165,862.863 835.625,865.65C834.085,868.363 833.315,871.627 833.315,875.44C833.315,879.253 834.085,882.553 835.625,885.34C837.165,888.053 839.292,890.143 842.005,891.61C844.718,893.077 847.762,893.81 851.135,893.81C854.068,893.81 856.782,893.15 859.275,891.83C861.842,890.51 864.005,888.457 865.765,885.67L876.325,891.83C874.052,896.23 870.715,899.64 866.315,902.06C861.988,904.407 856.965,905.58 851.245,905.58Z" style="fill:#1e262f;fill-rule:nonzero;"/>
    <path d="M913.065,905.58C906.538,905.58 900.818,904.297 895.905,901.73C891.065,899.09 887.288,895.497 884.575,890.95C881.935,886.403 880.615,881.233 880.615,875.44C880.615,869.573 881.898,864.403 884.465,859.93C887.105,855.383 890.698,851.827 895.245,849.26C899.865,846.693 905.108,845.41 910.975,845.41C916.695,845.41 921.792,846.657 926.265,849.15C930.738,851.643 934.258,855.163 936.825,859.71C939.392,864.257 940.675,869.61 940.675,875.77C940.675,876.357 940.638,877.017 940.565,877.75C940.565,878.483 940.528,879.18 940.455,879.84L891.505,879.84L891.505,870.71L933.195,870.71L927.805,873.57C927.878,870.197 927.182,867.227 925.715,864.66C924.248,862.093 922.232,860.077 919.665,858.61C917.172,857.143 914.275,856.41 910.975,856.41C907.602,856.41 904.632,857.143 902.065,858.61C899.572,860.077 897.592,862.13 896.125,864.77C894.732,867.337 894.035,870.38 894.035,873.9L894.035,876.1C894.035,879.62 894.842,882.737 896.455,885.45C898.068,888.163 900.342,890.253 903.275,891.72C906.208,893.187 909.582,893.92 913.395,893.92C916.695,893.92 919.665,893.407 922.305,892.38C924.945,891.353 927.292,889.74 929.345,887.54L936.715,896.01C934.075,899.09 930.738,901.473 926.705,903.16C922.745,904.773 918.198,905.58 913.065,905.58Z" style="fill:#1e262f;fill-rule:nonzero;"/>
    <g id="Epicurve">
        <rect x="152.185" y="763.459" width="38.778" height="18.022" style="fill:#fff;stroke:#2e96c2;stroke-width:5.17px;"/>
        <rect x="190.962" y="745.437" width="38.778" height="18.022" style="fill:#fff;stroke:#2e96c2;stroke-width:5.17px;"/>
        <rect x="190.962" y="763.459" width="38.778" height="18.022" style="fill:#fff;stroke:#2e96c2;stroke-width:5.17px;"/>
        <rect x="229.74" y="763.459" width="38.778" height="18.022" style="fill:#fff;stroke:#2e96c2;stroke-width:5.17px;"/>
        <rect x="229.74" y="745.437" width="38.778" height="18.022" style="fill:#fff;stroke:#2e96c2;stroke-width:5.17px;"/>
        <rect x="229.74" y="727.447" width="38.778" height="18.022" style="fill:#fff;stroke:#2e96c2;stroke-width:5.17px;"/>
        <rect x="229.74" y="709.425" width="38.778" height="18.022" style="fill:#fff;stroke:#2e96c2;stroke-width:5.17px;"/>
        <rect x="268.517" y="727.447" width="38.778" height="18.022" style="fill:#fff;stroke:#2e96c2;stroke-width:5.17px;"/>
        <rect x="268.517" y="709.425" width="38.778" height="18.022" style="fill:#fff;stroke:#2e96c2;stroke-width:5.17px;"/>
        <rect x="268.517" y="691.434" width="38.778" height="18.022" style="fill:#fff;stroke:#2e96c2;stroke-width:5.17px;"/>
        <rect x="268.517" y="763.459" width="38.778" height="18.022" style="fill:#fff;stroke:#2e96c2;stroke-width:5.17px;"/>
        <rect x="268.517" y="673.412" width="38.778" height="18.022" style="fill:#fff;stroke:#2e96c2;stroke-width:5.17px;"/>
        <rect x="268.517" y="655.421" width="38.778" height="18.022" style="fill:#fff;stroke:#2e96c2;stroke-width:5.17px;"/>
        <rect x="268.517" y="637.399" width="38.778" height="18.022" style="fill:#fff;stroke:#2e96c2;stroke-width:5.17px;"/>
        <rect x="268.517" y="619.409" width="38.778" height="18.022" style="fill:#fff;stroke:#2e96c2;stroke-width:5.17px;"/>
        <rect x="268.517" y="745.437" width="38.778" height="18.022" style="fill:#fff;stroke:#2e96c2;stroke-width:5.17px;"/>
        <rect x="268.517" y="601.387" width="38.778" height="18.022" style="fill:#fff;stroke:#2e96c2;stroke-width:5.17px;"/>
        <rect x="307.295" y="763.459" width="38.778" height="18.022" style="fill:#fff;stroke:#2e96c2;stroke-width:5.17px;"/>
        <rect x="307.295" y="745.437" width="38.778" height="18.022" style="fill:#fff;stroke:#2e96c2;stroke-width:5.17px;"/>
        <rect x="307.295" y="727.447" width="38.778" height="18.022" style="fill:#fff;stroke:#2e96c2;stroke-width:5.17px;"/>
        <rect x="307.295" y="709.425" width="38.778" height="18.022" style="fill:#fff;stroke:#2e96c2;stroke-width:5.17px;"/>
        <rect x="307.295" y="691.434" width="38.778" height="18.022" style="fill:#fff;stroke:#2e96c2;stroke-width:5.17px;"/>
        <rect x="307.295" y="673.412" width="38.778" height="18.022" style="fill:#fff;stroke:#2e96c2;stroke-width:5.17px;"/>
        <rect x="307.295" y="655.421" width="38.778" height="18.022" style="fill:#fff;stroke:#2e96c2;stroke-width:5.17px;"/>
        <rect x="307.295" y="637.399" width="38.778" height="18.022" style="fill:#fff;stroke:#2e96c2;stroke-width:5.17px;"/>
        <rect x="307.295" y="619.409" width="38.778" height="18.022" style="fill:#fff;stroke:#2e96c2;stroke-width:5.17px;"/>
        <rect x="307.295" y="601.387" width="38.778" height="18.022" style="fill:#fff;stroke:#2e96c2;stroke-width:5.17px;"/>
        <rect x="307.295" y="583.396" width="38.778" height="18.022" style="fill:#fff;stroke:#2e96c2;stroke-width:5.17px;"/>
        <rect x="307.295" y="565.374" width="38.778" height="18.022" style="fill:#fff;stroke:#2e96c2;stroke-width:5.17px;"/>
        <rect x="307.295" y="547.384" width="38.778" height="18.022" style="fill:#fff;stroke:#2e96c2;stroke-width:5.17px;"/>
        <rect x="307.295" y="529.361" width="38.778" height="18.022" style="fill:#fff;stroke:#2e96c2;stroke-width:5.17px;"/>
        <rect x="307.295" y="511.371" width="38.778" height="18.022" style="fill:#fff;stroke:#2e96c2;stroke-width:5.17px;"/>
        <rect x="307.295" y="493.349" width="38.778" height="18.022" style="fill:#fff;stroke:#2e96c2;stroke-width:5.17px;"/>
        <rect x="307.295" y="475.358" width="38.778" height="18.022" style="fill:#fff;stroke:#2e96c2;stroke-width:5.17px;"/>
        <rect x="307.295" y="457.336" width="38.778" height="18.022" style="fill:#fff;stroke:#2e96c2;stroke-width:5.17px;"/>
        <rect x="307.295" y="439.346" width="38.778" height="18.022" style="fill:#fff;stroke:#2e96c2;stroke-width:5.17px;"/>
        <rect x="307.295" y="421.324" width="38.778" height="18.022" style="fill:#fff;stroke:#2e96c2;stroke-width:5.17px;"/>
        <rect x="307.295" y="403.333" width="38.778" height="18.022" style="fill:#fff;stroke:#2e96c2;stroke-width:5.17px;"/>
        <rect x="307.295" y="385.311" width="38.778" height="18.022" style="fill:#fff;stroke:#2e96c2;stroke-width:5.17px;"/>
        <rect x="307.295" y="367.321" width="38.778" height="18.022" style="fill:#fff;stroke:#2e96c2;stroke-width:5.17px;"/>
        <rect x="307.295" y="349.298" width="38.778" height="18.022" style="fill:#fff;stroke:#2e96c2;stroke-width:5.17px;"/>
        <rect x="307.295" y="331.308" width="38.778" height="18.022" style="fill:#fff;stroke:#2e96c2;stroke-width:5.17px;"/>
        <rect x="307.295" y="313.286" width="38.778" height="18.022" style="fill:#fff;stroke:#2e96c2;stroke-width:5.17px;"/>
        <rect x="307.295" y="295.295" width="38.778" height="18.022" style="fill:#fff;stroke:#2e96c2;stroke-width:5.17px;"/>
        <rect x="346.073" y="763.459" width="38.778" height="18.022" style="fill:#fff;stroke:#2e96c2;stroke-width:5.17px;"/>
        <rect x="346.073" y="457.336" width="38.778" height="18.022" style="fill:#fff;stroke:#2e96c2;stroke-width:5.17px;"/>
        <rect x="346.073" y="439.346" width="38.778" height="18.022" style="fill:#fff;stroke:#2e96c2;stroke-width:5.17px;"/>
        <rect x="346.073" y="421.324" width="38.778" height="18.022" style="fill:#fff;stroke:#2e96c2;stroke-width:5.17px;"/>
        <rect x="346.073" y="745.437" width="38.778" height="18.022" style="fill:#fff;stroke:#2e96c2;stroke-width:5.17px;"/>
        <rect x="346.073" y="403.333" width="38.778" height="18.022" style="fill:#fff;stroke:#2e96c2;stroke-width:5.17px;"/>
        <rect x="346.073" y="385.311" width="38.778" height="18.022" style="fill:#fff;stroke:#2e96c2;stroke-width:5.17px;"/>
        <rect x="346.073" y="367.321" width="38.778" height="18.022" style="fill:#fff;stroke:#2e96c2;stroke-width:5.17px;"/>
        <rect x="346.073" y="349.298" width="38.778" height="18.022" style="fill:#fff;stroke:#2e96c2;stroke-width:5.17px;"/>
        <rect x="346.073" y="727.447" width="38.778" height="18.022" style="fill:#fff;stroke:#2e96c2;stroke-width:5.17px;"/>
        <rect x="346.073" y="709.425" width="38.778" height="18.022" style="fill:#fff;stroke:#2e96c2;stroke-width:5.17px;"/>
        <rect x="346.073" y="691.434" width="38.778" height="18.022" style="fill:#fff;stroke:#2e96c2;stroke-width:5.17px;"/>
        <rect x="346.073" y="673.412" width="38.778" height="18.022" style="fill:#fff;stroke:#2e96c2;stroke-width:5.17px;"/>
        <rect x="346.073" y="331.308" width="38.778" height="18.022" style="fill:#fff;stroke:#2e96c2;stroke-width:5.17px;"/>
        <rect x="346.073" y="313.286" width="38.778" height="18.022" style="fill:#fff;stroke:#2e96c2;stroke-width:5.17px;"/>
        <rect x="346.073" y="295.295" width="38.778" height="18.022" style="fill:#fff;stroke:#2e96c2;stroke-width:5.17px;"/>
        <rect x="346.073" y="655.421" width="38.778" height="18.022" style="fill:#fff;stroke:#2e96c2;stroke-width:5.17px;"/>
        <rect x="346.073" y="637.399" width="38.778" height="18.022" style="fill:#fff;stroke:#2e96c2;stroke-width:5.17px;"/>
        <rect x="346.073" y="619.409" width="38.778" height="18.022" style="fill:#fff;stroke:#2e96c2;stroke-width:5.17px;"/>
        <rect x="346.073" y="277.273" width="38.778" height="18.022" style="fill:#fff;stroke:#2e96c2;stroke-width:5.17px;"/>
        <rect x="346.073" y="259.283" width="38.778" height="18.022" style="fill:#fff;stroke:#2e96c2;stroke-width:5.17px;"/>
        <rect x="346.073" y="241.261" width="38.778" height="18.022" style="fill:#fff;stroke:#2e96c2;stroke-width:5.17px;"/>
        <rect x="346.073" y="601.387" width="38.778" height="18.022" style="fill:#fff;stroke:#2e96c2;stroke-width:5.17px;"/>
        <rect x="346.073" y="583.396" width="38.778" height="18.022" style="fill:#fff;stroke:#2e96c2;stroke-width:5.17px;"/>
        <rect x="346.073" y="565.374" width="38.778" height="18.022" style="fill:#fff;stroke:#2e96c2;stroke-width:5.17px;"/>
        <rect x="346.073" y="547.384" width="38.778" height="18.022" style="fill:#fff;stroke:#2e96c2;stroke-width:5.17px;"/>
        <rect x="346.073" y="528.467" width="38.778" height="18.022" style="fill:#fff;stroke:#2e96c2;stroke-width:5.17px;"/>
        <rect x="346.073" y="511.371" width="38.778" height="18.022" style="fill:#fff;stroke:#2e96c2;stroke-width:5.17px;"/>
        <rect x="346.073" y="493.349" width="38.778" height="18.022" style="fill:#fff;stroke:#2e96c2;stroke-width:5.17px;"/>
        <rect x="346.073" y="475.358" width="38.778" height="18.022" style="fill:#fff;stroke:#2e96c2;stroke-width:5.17px;"/>
        <rect x="384.85" y="421.324" width="38.778" height="18.022" style="fill:#fff;stroke:#2e96c2;stroke-width:5.17px;"/>
        <rect x="384.85" y="403.333" width="38.778" height="18.022" style="fill:#fff;stroke:#2e96c2;stroke-width:5.17px;"/>
        <rect x="384.85" y="745.437" width="38.778" height="18.022" style="fill:#fff;stroke:#2e96c2;stroke-width:5.17px;"/>
        <rect x="384.85" y="763.459" width="38.778" height="18.022" style="fill:#fff;stroke:#2e96c2;stroke-width:5.17px;"/>
        <rect x="384.85" y="655.421" width="38.778" height="18.022" style="fill:#fff;stroke:#2e96c2;stroke-width:5.17px;"/>
        <rect x="384.85" y="637.399" width="38.778" height="18.022" style="fill:#fff;stroke:#2e96c2;stroke-width:5.17px;"/>
        <rect x="384.85" y="619.409" width="38.778" height="18.022" style="fill:#fff;stroke:#2e96c2;stroke-width:5.17px;"/>
        <rect x="384.85" y="385.311" width="38.778" height="18.022" style="fill:#fff;stroke:#2e96c2;stroke-width:5.17px;"/>
        <rect x="384.85" y="601.387" width="38.778" height="18.022" style="fill:#fff;stroke:#2e96c2;stroke-width:5.17px;"/>
        <rect x="384.85" y="583.396" width="38.778" height="18.022" style="fill:#fff;stroke:#2e96c2;stroke-width:5.17px;"/>
        <rect x="384.85" y="565.374" width="38.778" height="18.022" style="fill:#fff;stroke:#2e96c2;stroke-width:5.17px;"/>
        <rect x="384.85" y="547.384" width="38.778" height="18.022" style="fill:#fff;stroke:#2e96c2;stroke-width:5.17px;"/>
        <rect x="384.85" y="727.447" width="38.778" height="18.022" style="fill:#fff;stroke:#2e96c2;stroke-width:5.17px;"/>
        <rect x="384.85" y="709.425" width="38.778" height="18.022" style="fill:#fff;stroke:#2e96c2;stroke-width:5.17px;"/>
        <rect x="384.85" y="529.361" width="38.778" height="18.022" style="fill:#fff;stroke:#2e96c2;stroke-width:5.17px;"/>
        <rect x="384.85" y="511.371" width="38.778" height="18.022" style="fill:#fff;stroke:#2e96c2;stroke-width:5.17px;"/>
        <rect x="384.85" y="493.349" width="38.778" height="18.022" style="fill:#fff;stroke:#2e96c2;stroke-width:5.17px;"/>
        <rect x="384.85" y="475.358" width="38.778" height="18.022" style="fill:#fff;stroke:#2e96c2;stroke-width:5.17px;"/>
        <rect x="384.85" y="691.434" width="38.778" height="18.022" style="fill:#fff;stroke:#2e96c2;stroke-width:5.17px;"/>
        <rect x="384.85" y="457.336" width="38.778" height="18.022" style="fill:#fff;stroke:#2e96c2;stroke-width:5.17px;"/>
        <rect x="384.85" y="439.346" width="38.778" height="18.022" style="fill:#fff;stroke:#2e96c2;stroke-width:5.17px;"/>
        <rect x="384.85" y="673.412" width="38.778" height="18.022" style="fill:#fff;stroke:#2e96c2;stroke-width:5.17px;"/>
        <rect x="423.628" y="745.437" width="38.778" height="18.022" style="fill:#fff;stroke:#2e96c2;stroke-width:5.17px;"/>
        <rect x="423.628" y="763.459" width="38.778" height="18.022" style="fill:#fff;stroke:#2e96c2;stroke-width:5.17px;"/>
        <rect x="423.628" y="727.447" width="38.778" height="18.022" style="fill:#fff;stroke:#2e96c2;stroke-width:5.17px;"/>
        <rect x="423.628" y="673.412" width="38.778" height="18.022" style="fill:#fff;stroke:#2e96c2;stroke-width:5.17px;"/>
        <rect x="423.628" y="655.421" width="38.778" height="18.022" style="fill:#fff;stroke:#2e96c2;stroke-width:5.17px;"/>
        <rect x="423.628" y="709.425" width="38.778" height="18.022" style="fill:#fff;stroke:#2e96c2;stroke-width:5.17px;"/>
        <rect x="423.628" y="637.399" width="38.778" height="18.022" style="fill:#fff;stroke:#2e96c2;stroke-width:5.17px;"/>
        <rect x="423.628" y="691.434" width="38.778" height="18.022" style="fill:#fff;stroke:#2e96c2;stroke-width:5.17px;"/>
        <rect x="462.406" y="763.459" width="38.778" height="18.022" style="fill:#fff;stroke:#2e96c2;stroke-width:5.17px;"/>
        <rect x="462.406" y="745.437" width="38.778" height="18.022" style="fill:#fff;stroke:#2e96c2;stroke-width:5.17px;"/>
        <rect x="462.406" y="727.447" width="38.778" height="18.022" style="fill:#fff;stroke:#2e96c2;stroke-width:5.17px;"/>
        <rect x="462.406" y="709.425" width="38.778" height="18.022" style="fill:#fff;stroke:#2e96c2;stroke-width:5.17px;"/>
        <rect x="462.406" y="691.434" width="38.778" height="18.022" style="fill:#fff;stroke:#2e96c2;stroke-width:5.17px;"/>
        <rect x="462.406" y="673.412" width="38.778" height="18.022" style="fill:#fff;stroke:#2e96c2;stroke-width:5.17px;"/>
        <rect x="462.406" y="655.421" width="38.778" height="18.022" style="fill:#fff;stroke:#2e96c2;stroke-width:5.17px;"/>
        <rect x="462.406" y="637.399" width="38.778" height="18.022" style="fill:#fff;stroke:#2e96c2;stroke-width:5.17px;"/>
        <rect x="462.406" y="619.409" width="38.778" height="18.022" style="fill:#fff;stroke:#2e96c2;stroke-width:5.17px;"/>
        <rect x="501.183" y="763.459" width="38.778" height="18.022" style="fill:#fff;stroke:#2e96c2;stroke-width:5.17px;"/>
        <rect x="501.183" y="745.437" width="38.778" height="18.022" style="fill:#fff;stroke:#2e96c2;stroke-width:5.17px;"/>
        <rect x="539.961" y="763.459" width="38.778" height="18.022" style="fill:#fff;stroke:#2e96c2;stroke-width:5.17px;"/>
        <rect x="539.961" y="745.437" width="38.778" height="18.022" style="fill:#fff;stroke:#2e96c2;stroke-width:5.17px;"/>
        <rect x="539.961" y="727.447" width="38.778" height="18.022" style="fill:#fff;stroke:#2e96c2;stroke-width:5.17px;"/>
        <rect x="539.961" y="709.425" width="38.778" height="18.022" style="fill:#fff;stroke:#2e96c2;stroke-width:5.17px;"/>
        <rect x="578.738" y="763.459" width="38.778" height="18.022" style="fill:#fff;stroke:#2e96c2;stroke-width:5.17px;"/>
        <rect x="578.738" y="745.437" width="38.778" height="18.022" style="fill:#fff;stroke:#2e96c2;stroke-width:5.17px;"/>
        <rect x="578.738" y="727.447" width="38.778" height="18.022" style="fill:#fff;stroke:#2e96c2;stroke-width:5.17px;"/>
        <rect x="578.738" y="709.425" width="38.778" height="18.022" style="fill:#fff;stroke:#2e96c2;stroke-width:5.17px;"/>
        <rect x="578.738" y="691.434" width="38.778" height="18.022" style="fill:#fff;stroke:#2e96c2;stroke-width:5.17px;"/>
        <rect x="578.738" y="673.412" width="38.778" height="18.022" style="fill:#fff;stroke:#2e96c2;stroke-width:5.17px;"/>
        <rect x="617.516" y="763.459" width="38.778" height="18.022" style="fill:#fff;stroke:#2e96c2;stroke-width:5.17px;"/>
        <rect x="617.516" y="745.437" width="38.778" height="18.022" style="fill:#fff;stroke:#2e96c2;stroke-width:5.17px;"/>
        <rect x="617.516" y="727.447" width="38.778" height="18.022" style="fill:#fff;stroke:#2e96c2;stroke-width:5.17px;"/>
        <rect x="617.516" y="709.425" width="38.778" height="18.022" style="fill:#fff;stroke:#2e96c2;stroke-width:5.17px;"/>
        <rect x="617.516" y="691.434" width="38.778" height="18.022" style="fill:#fff;stroke:#2e96c2;stroke-width:5.17px;"/>
        <rect x="617.516" y="673.412" width="38.778" height="18.022" style="fill:#fff;stroke:#2e96c2;stroke-width:5.17px;"/>
        <rect x="617.516" y="655.421" width="38.778" height="18.022" style="fill:#fff;stroke:#2e96c2;stroke-width:5.17px;"/>
        <rect x="617.516" y="637.399" width="38.778" height="18.022" style="fill:#fff;stroke:#2e96c2;stroke-width:5.17px;"/>
        <rect x="617.516" y="619.409" width="38.778" height="18.022" style="fill:#fff;stroke:#2e96c2;stroke-width:5.17px;"/>
        <rect x="617.516" y="601.387" width="38.778" height="18.022" style="fill:#fff;stroke:#2e96c2;stroke-width:5.17px;"/>
        <rect x="617.516" y="583.396" width="38.778" height="18.022" style="fill:#fff;stroke:#2e96c2;stroke-width:5.17px;"/>
        <rect x="617.516" y="565.374" width="38.778" height="18.022" style="fill:#fff;stroke:#2e96c2;stroke-width:5.17px;"/>
        <rect x="617.516" y="547.384" width="38.778" height="18.022" style="fill:#fff;stroke:#2e96c2;stroke-width:5.17px;"/>
        <rect x="617.516" y="529.361" width="38.778" height="18.022" style="fill:#fff;stroke:#2e96c2;stroke-width:5.17px;"/>
        <rect x="617.516" y="511.371" width="38.778" height="18.022" style="fill:#fff;stroke:#2e96c2;stroke-width:5.17px;"/>
        <rect x="617.516" y="493.349" width="38.778" height="18.022" style="fill:#fff;stroke:#2e96c2;stroke-width:5.17px;"/>
        <rect x="617.516" y="475.358" width="38.778" height="18.022" style="fill:#fff;stroke:#2e96c2;stroke-width:5.17px;"/>
        <rect x="617.516" y="457.336" width="38.778" height="18.022" style="fill:#fff;stroke:#2e96c2;stroke-width:5.17px;"/>
        <rect x="656.294" y="745.437" width="38.778" height="18.022" style="fill:#fff;stroke:#2e96c2;stroke-width:5.17px;"/>
        <rect x="656.294" y="727.447" width="38.778" height="18.022" style="fill:#fff;stroke:#2e96c2;stroke-width:5.17px;"/>
        <rect x="656.294" y="709.425" width="38.778" height="18.022" style="fill:#fff;stroke:#2e96c2;stroke-width:5.17px;"/>
        <rect x="656.294" y="691.434" width="38.778" height="18.022" style="fill:#fff;stroke:#2e96c2;stroke-width:5.17px;"/>
        <rect x="656.294" y="673.412" width="38.778" height="18.022" style="fill:#fff;stroke:#2e96c2;stroke-width:5.17px;"/>
        <rect x="656.294" y="655.421" width="38.778" height="18.022" style="fill:#fff;stroke:#2e96c2;stroke-width:5.17px;"/>
        <rect x="656.294" y="637.399" width="38.778" height="18.022" style="fill:#fff;stroke:#2e96c2;stroke-width:5.17px;"/>
        <rect x="656.294" y="619.409" width="38.778" height="18.022" style="fill:#fff;stroke:#2e96c2;stroke-width:5.17px;"/>
        <rect x="656.294" y="601.387" width="38.778" height="18.022" style="fill:#fff;stroke:#2e96c2;stroke-width:5.17px;"/>
        <rect x="656.294" y="763.459" width="38.778" height="18.022" style="fill:#fff;stroke:#2e96c2;stroke-width:5.17px;"/>
        <rect x="656.294" y="583.396" width="38.778" height="18.022" style="fill:#fff;stroke:#2e96c2;stroke-width:5.17px;"/>
        <rect x="656.294" y="565.374" width="38.778" height="18.022" style="fill:#fff;stroke:#2e96c2;stroke-width:5.17px;"/>
        <rect x="656.294" y="547.384" width="38.778" height="18.022" style="fill:#fff;stroke:#2e96c2;stroke-width:5.17px;"/>
        <rect x="656.294" y="529.361" width="38.778" height="18.022" style="fill:#fff;stroke:#2e96c2;stroke-width:5.17px;"/>
        <rect x="656.294" y="511.371" width="38.778" height="18.022" style="fill:#fff;stroke:#2e96c2;stroke-width:5.17px;"/>
        <rect x="656.294" y="493.349" width="38.778" height="18.022" style="fill:#fff;stroke:#2e96c2;stroke-width:5.17px;"/>
        <rect x="656.294" y="475.358" width="38.778" height="18.022" style="fill:#fff;stroke:#2e96c2;stroke-width:5.17px;"/>
        <rect x="656.294" y="457.336" width="38.778" height="18.022" style="fill:#fff;stroke:#2e96c2;stroke-width:5.17px;"/>
        <rect x="656.294" y="439.346" width="38.778" height="18.022" style="fill:#fff;stroke:#2e96c2;stroke-width:5.17px;"/>
        <rect x="656.294" y="421.324" width="38.778" height="18.022" style="fill:#fff;stroke:#2e96c2;stroke-width:5.17px;"/>
        <rect x="656.294" y="403.333" width="38.778" height="18.022" style="fill:#fff;stroke:#2e96c2;stroke-width:5.17px;"/>
        <rect x="656.294" y="385.311" width="38.778" height="18.022" style="fill:#fff;stroke:#2e96c2;stroke-width:5.17px;"/>
        <rect x="656.294" y="367.321" width="38.778" height="18.022" style="fill:#fff;stroke:#2e96c2;stroke-width:5.17px;"/>
        <rect x="656.294" y="349.298" width="38.778" height="18.022" style="fill:#fff;stroke:#2e96c2;stroke-width:5.17px;"/>
        <rect x="656.294" y="331.308" width="38.778" height="18.022" style="fill:#fff;stroke:#2e96c2;stroke-width:5.17px;"/>
        <rect x="656.294" y="313.286" width="38.778" height="18.022" style="fill:#fff;stroke:#2e96c2;stroke-width:5.17px;"/>
        <rect x="656.294" y="295.295" width="38.778" height="18.022" style="fill:#fff;stroke:#2e96c2;stroke-width:5.17px;"/>
        <rect x="656.294" y="277.273" width="38.778" height="18.022" style="fill:#fff;stroke:#2e96c2;stroke-width:5.17px;"/>
        <rect x="656.294" y="259.283" width="38.778" height="18.022" style="fill:#fff;stroke:#2e96c2;stroke-width:5.17px;"/>
        <rect x="695.071" y="709.425" width="38.778" height="18.022" style="fill:#fff;stroke:#2e96c2;stroke-width:5.17px;"/>
        <rect x="695.071" y="691.434" width="38.778" height="18.022" style="fill:#fff;stroke:#2e96c2;stroke-width:5.17px;"/>
        <rect x="695.071" y="673.412" width="38.778" height="18.022" style="fill:#fff;stroke:#2e96c2;stroke-width:5.17px;"/>
        <rect x="695.071" y="655.421" width="38.778" height="18.022" style="fill:#fff;stroke:#2e96c2;stroke-width:5.17px;"/>
        <rect x="695.071" y="637.399" width="38.778" height="18.022" style="fill:#fff;stroke:#2e96c2;stroke-width:5.17px;"/>
        <rect x="695.071" y="619.409" width="38.778" height="18.022" style="fill:#fff;stroke:#2e96c2;stroke-width:5.17px;"/>
        <rect x="695.071" y="601.387" width="38.778" height="18.022" style="fill:#fff;stroke:#2e96c2;stroke-width:5.17px;"/>
        <rect x="695.071" y="583.396" width="38.778" height="18.022" style="fill:#fff;stroke:#2e96c2;stroke-width:5.17px;"/>
        <rect x="695.071" y="565.374" width="38.778" height="18.022" style="fill:#fff;stroke:#2e96c2;stroke-width:5.17px;"/>
        <rect x="695.071" y="547.384" width="38.778" height="18.022" style="fill:#fff;stroke:#2e96c2;stroke-width:5.17px;"/>
        <rect x="695.071" y="529.361" width="38.778" height="18.022" style="fill:#fff;stroke:#2e96c2;stroke-width:5.17px;"/>
        <rect x="695.071" y="511.371" width="38.778" height="18.022" style="fill:#fff;stroke:#2e96c2;stroke-width:5.17px;"/>
        <rect x="695.071" y="493.349" width="38.778" height="18.022" style="fill:#fff;stroke:#2e96c2;stroke-width:5.17px;"/>
        <rect x="695.071" y="475.358" width="38.778" height="18.022" style="fill:#fff;stroke:#2e96c2;stroke-width:5.17px;"/>
        <rect x="695.071" y="457.336" width="38.778" height="18.022" style="fill:#fff;stroke:#2e96c2;stroke-width:5.17px;"/>
        <rect x="695.071" y="439.346" width="38.778" height="18.022" style="fill:#fff;stroke:#2e96c2;stroke-width:5.17px;"/>
        <rect x="695.071" y="421.324" width="38.778" height="18.022" style="fill:#fff;stroke:#2e96c2;stroke-width:5.17px;"/>
        <rect x="695.071" y="403.333" width="38.778" height="18.022" style="fill:#fff;stroke:#2e96c2;stroke-width:5.17px;"/>
        <rect x="695.071" y="763.459" width="38.778" height="18.022" style="fill:#fff;stroke:#2e96c2;stroke-width:5.17px;"/>
        <rect x="695.071" y="385.311" width="38.778" height="18.022" style="fill:#fff;stroke:#2e96c2;stroke-width:5.17px;"/>
        <rect x="695.071" y="367.321" width="38.778" height="18.022" style="fill:#fff;stroke:#2e96c2;stroke-width:5.17px;"/>
        <rect x="695.071" y="349.298" width="38.778" height="18.022" style="fill:#fff;stroke:#2e96c2;stroke-width:5.17px;"/>
        <rect x="695.071" y="745.437" width="38.778" height="18.022" style="fill:#fff;stroke:#2e96c2;stroke-width:5.17px;"/>
        <rect x="695.071" y="727.447" width="38.778" height="18.022" style="fill:#fff;stroke:#2e96c2;stroke-width:5.17px;"/>
        <rect x="772.617" y="727.447" width="38.778" height="18.022" style="fill:#fff;stroke:#2e96c2;stroke-width:5.17px;"/>
        <rect x="772.617" y="763.459" width="38.778" height="18.022" style="fill:#fff;stroke:#2e96c2;stroke-width:5.17px;"/>
        <rect x="772.617" y="745.437" width="38.778" height="18.022" style="fill:#fff;stroke:#2e96c2;stroke-width:5.17px;"/>
        <rect x="811.394" y="763.459" width="38.778" height="18.022" style="fill:#fff;stroke:#2e96c2;stroke-width:5.17px;"/>
        <rect x="733.826" y="727.447" width="38.778" height="18.022" style="fill:#fff;stroke:#2e96c2;stroke-width:5.17px;"/>
        <rect x="733.826" y="709.425" width="38.778" height="18.022" style="fill:#fff;stroke:#2e96c2;stroke-width:5.17px;"/>
        <rect x="733.826" y="691.434" width="38.778" height="18.022" style="fill:#fff;stroke:#2e96c2;stroke-width:5.17px;"/>
        <rect x="733.826" y="673.412" width="38.778" height="18.022" style="fill:#fff;stroke:#2e96c2;stroke-width:5.17px;"/>
        <rect x="733.826" y="763.459" width="38.778" height="18.022" style="fill:#fff;stroke:#2e96c2;stroke-width:5.17px;"/>
        <rect x="733.826" y="745.437" width="38.778" height="18.022" style="fill:#fff;stroke:#2e96c2;stroke-width:5.17px;"/>
        <rect x="889.038" y="763.459" width="38.778" height="18.022" style="fill:#fff;stroke:#2e96c2;stroke-width:5.17px;"/>
    </g>
</svg>
